RBDS001runT25_grf
version=1
nRows=21
nColumns=19
inDegrees=no
endheader
time	ground_force_r_vx	ground_force_r_vy	ground_force_r_vz	ground_force_r_px	ground_force_r_py	ground_force_r_pz	ground_force_r_mx	ground_force_r_my	ground_force_r_mz	ground_force_l_vx	ground_force_l_vy	ground_force_l_vz	ground_force_l_px	ground_force_l_py	ground_force_l_pz	ground_force_l_mx	ground_force_l_my	ground_force_l_mz
     14.99900000	      0.00000000	      0.00000000	      0.00000000	      0.00000000	      0.00000000	      0.00000000	      0.00000000	      0.00000000	      0.00000000	    -71.26877113	    429.22574482	     10.44877669	      2.47113503	      0.00000000	      0.98940827	     -0.00000000	      4.39084024	      0.00000000
     15.00000000	      0.00000000	      0.00000000	      0.00000000	      0.00000000	      0.00000000	      0.00000000	      0.00000000	      0.00000000	      0.00000000	    -71.56146120	    444.74517110	     10.24729763	      2.46959736	      0.00000000	      0.99029023	     -0.00000000	      4.27754898	      0.00000000
     15.00100000	      0.00000000	      0.00000000	      0.00000000	      0.00000000	      0.00000000	      0.00000000	      0.00000000	      0.00000000	      0.00000000	    -71.95158832	    460.58872408	      9.88390033	      2.46790936	      0.00000000	      0.99114508	     -0.00000000	      4.17943342	      0.00000000
     15.00200000	      0.00000000	      0.00000000	      0.00000000	      0.00000000	      0.00000000	      0.00000000	      0.00000000	      0.00000000	      0.00000000	    -72.34171543	    476.43227706	      9.52050304	      2.46622135	      0.00000000	      0.99199993	     -0.00000000	      4.08131786	      0.00000000
     15.00300000	      0.00000000	      0.00000000	      0.00000000	      0.00000000	      0.00000000	      0.00000000	      0.00000000	      0.00000000	      0.00000000	    -72.73184254	    492.27583005	      9.15710574	      2.46453335	      0.00000000	      0.99285477	     -0.00000000	      3.98320230	      0.00000000
     15.00400000	      0.00000000	      0.00000000	      0.00000000	      0.00000000	      0.00000000	      0.00000000	      0.00000000	      0.00000000	      0.00000000	    -73.18853018	    508.31022837	      8.69634888	      2.46274566	      0.00000000	      0.99368847	     -0.00000000	      3.89484327	      0.00000000
     15.00500000	      0.00000000	      0.00000000	      0.00000000	      0.00000000	      0.00000000	      0.00000000	      0.00000000	      0.00000000	      0.00000000	    -73.67849808	    524.44004936	      8.18691223	      2.46090813	      0.00000000	      0.99451158	     -0.00000000	      3.81136250	      0.00000000
     15.00600000	      0.00000000	      0.00000000	      0.00000000	      0.00000000	      0.00000000	      0.00000000	      0.00000000	      0.00000000	      0.00000000	    -74.16846599	    540.56987035	      7.67747558	      2.45907059	      0.00000000	      0.99533470	     -0.00000000	      3.72788174	      0.00000000
     15.00700000	      0.00000000	      0.00000000	      0.00000000	      0.00000000	      0.00000000	      0.00000000	      0.00000000	      0.00000000	      0.00000000	    -74.69098623	    556.77589350	      7.12676139	      2.45718517	      0.00000000	      0.99614570	     -0.00000000	      3.64907031	      0.00000000
     15.00800000	      0.00000000	      0.00000000	      0.00000000	      0.00000000	      0.00000000	      0.00000000	      0.00000000	      0.00000000	      0.00000000	    -75.27861115	    573.13432094	      6.49349213	      2.45520397	      0.00000000	      0.99693247	     -0.00000000	      3.57959757	      0.00000000
     15.00900000	      0.00000000	      0.00000000	      0.00000000	      0.00000000	      0.00000000	      0.00000000	      0.00000000	      0.00000000	      0.00000000	    -75.86623607	    589.49274838	      5.86022287	      2.45322277	      0.00000000	      0.99771924	     -0.00000000	      3.51012482	      0.00000000
     15.01000000	      0.00000000	      0.00000000	      0.00000000	      0.00000000	      0.00000000	      0.00000000	      0.00000000	      0.00000000	      0.00000000	    -76.45386099	    605.85117583	      5.22695360	      2.45124156	      0.00000000	      0.99850601	     -0.00000000	      3.44065208	      0.00000000
     15.01100000	      0.00000000	      0.00000000	      0.00000000	      0.00000000	      0.00000000	      0.00000000	      0.00000000	      0.00000000	      0.00000000	    -77.13231316	    622.36186420	      4.49756309	      2.44912712	      0.00000000	      0.99925191	     -0.00000000	      3.38448717	      0.00000000
     15.01200000	      0.00000000	      0.00000000	      0.00000000	      0.00000000	      0.00000000	      0.00000000	      0.00000000	      0.00000000	      0.00000000	    -77.81076533	    638.87255256	      3.76817258	      2.44701268	      0.00000000	      0.99999780	     -0.00000000	      3.32832226	      0.00000000
     15.01300000	      0.00000000	      0.00000000	      0.00000000	      0.00000000	      0.00000000	      0.00000000	      0.00000000	      0.00000000	      0.00000000	    -78.48921750	    655.38324093	      3.03878207	      2.44489824	      0.00000000	      1.00074369	     -0.00000000	      3.27215734	      0.00000000
     15.01400000	      0.00000000	      0.00000000	      0.00000000	      0.00000000	      0.00000000	      0.00000000	      0.00000000	      0.00000000	      0.00000000	    -79.22069107	    671.93355298	      2.26681037	      2.44270452	      0.00000000	      1.00145943	     -0.00000000	      3.22436450	      0.00000000
     15.01500000	      0.00000000	      0.00000000	      0.00000000	      0.00000000	      0.00000000	      0.00000000	      0.00000000	      0.00000000	      0.00000000	    -79.97867534	    688.50367686	      1.47354807	      2.44047115	      0.00000000	      1.00216009	     -0.00000000	      3.18075769	      0.00000000
     15.01600000	      0.00000000	      0.00000000	      0.00000000	      0.00000000	      0.00000000	      0.00000000	      0.00000000	      0.00000000	      0.00000000	    -80.73665960	    705.07380075	      0.68028577	      2.43823779	      0.00000000	      1.00286076	     -0.00000000	      3.13715088	      0.00000000
     15.01700000	      0.00000000	      0.00000000	      0.00000000	      0.00000000	      0.00000000	      0.00000000	      0.00000000	      0.00000000	      0.00000000	    -81.51603355	    721.62834748	     -0.12236753	      2.43597056	      0.00000000	      1.00354499	     -0.00000000	      3.09747457	      0.00000000
     15.01800000	      0.00000000	      0.00000000	      0.00000000	      0.00000000	      0.00000000	      0.00000000	      0.00000000	      0.00000000	      0.00000000	    -82.33818684	    738.15173991	     -0.94380284	      2.43363563	      0.00000000	      1.00419637	     -0.00000000	      3.06565925	      0.00000000
     15.01900000	      0.00000000	      0.00000000	      0.00000000	      0.00000000	      0.00000000	      0.00000000	      0.00000000	      0.00000000	      0.00000000	    -83.16034013	    754.67513235	     -1.76523815	      2.43130069	      0.00000000	      1.00484775	     -0.00000000	      3.03384393	      0.00000000
